<svg xmlns="http://www.w3.org/2000/svg" xmlns:xlink="http://www.w3.org/1999/xlink" width="500" zoomAndPan="magnify" viewBox="0 0 375.12 383.03998" height="500" preserveAspectRatio="xMidYMid meet" version="1.0"><defs><clipPath id="3f528634f6"><path d="M 35.800781 0 L 338.042969 0 L 338.042969 374.0625 L 35.800781 374.0625 Z M 35.800781 0 " clip-rule="nonzero"/></clipPath></defs><g clip-path="url(#3f528634f6)"><path fill="#2f6690" d="M 97.132812 296.125 C 101.367188 315.878906 106.332031 334.132812 112.234375 346.320312 C 116.679688 355.492188 121.183594 360.460938 125.464844 357.710938 C 130.957031 354.183594 135.792969 348.121094 139.503906 341.253906 C 143.753906 333.386719 146.421875 324.691406 146.886719 317.558594 C 147.132812 313.777344 147.0625 309.394531 146.984375 304.6875 C 146.683594 286.035156 146.3125 262.921875 161.824219 250.230469 C 170.503906 243.132812 182.53125 239.582031 194.441406 239.582031 C 206.351562 239.582031 218.378906 243.132812 227.054688 250.230469 C 242.566406 262.921875 242.195312 286.035156 241.894531 304.6875 C 241.816406 309.394531 241.746094 313.777344 241.992188 317.558594 C 242.457031 324.691406 245.125 333.386719 249.375 341.253906 C 253.085938 348.121094 257.921875 354.183594 263.414062 357.710938 C 266.675781 359.804688 270.050781 357.402344 273.40625 352.179688 C 287.085938 330.871094 296.128906 275.605469 302.699219 235.445312 C 306.324219 213.28125 309.230469 195.539062 312.175781 188.929688 C 320.953125 169.25 326.332031 143.433594 321.773438 120.503906 C 318.371094 103.375 309.238281 87.867188 291.441406 78.046875 C 289.238281 76.832031 287.191406 75.804688 285.285156 74.953125 C 284.515625 74.605469 283.730469 74.273438 282.929688 73.953125 C 282.773438 74.070312 282.617188 74.1875 282.464844 74.308594 C 275.3125 79.902344 270.101562 88.40625 266.839844 99.824219 L 266.820312 99.820312 C 265.957031 102.855469 263.210938 105.121094 259.890625 105.222656 C 255.777344 105.351562 252.339844 102.125 252.210938 98.011719 C 251.84375 87.5 249.429688 78.828125 244.964844 71.992188 C 240.734375 73.03125 236.453125 74.324219 232.089844 75.640625 C 220.871094 79.023438 209.117188 82.570312 194.730469 83.15625 C 194.519531 83.164062 194.3125 83.160156 194.105469 83.152344 C 179.738281 82.5625 167.996094 79.023438 156.789062 75.640625 C 138.191406 70.027344 121.238281 64.914062 97.4375 78.046875 C 79.640625 87.867188 70.507812 103.375 67.105469 120.503906 C 62.546875 143.433594 67.929688 169.25 76.703125 188.929688 C 79.59375 195.410156 82.441406 212.605469 85.972656 234.179688 C 87.082031 232.277344 88.125 230.238281 89.101562 228.066406 C 90.300781 225.046875 93.394531 223.0625 96.789062 223.410156 C 100.882812 223.828125 103.863281 227.488281 103.445312 231.582031 C 102.292969 242.496094 103.765625 251.617188 107.867188 258.9375 C 107.941406 259.050781 108.011719 259.164062 108.082031 259.28125 C 112.273438 266.542969 119.25 272.289062 129.011719 276.511719 C 132.199219 277.667969 134.289062 280.898438 133.875 284.40625 C 133.390625 288.503906 129.679688 291.429688 125.582031 290.945312 C 114.984375 289.660156 106.046875 291.050781 98.78125 295.121094 C 98.667969 295.195312 98.554688 295.265625 98.4375 295.332031 C 97.996094 295.585938 97.5625 295.851562 97.132812 296.125 Z M 277.527344 59.59375 C 276.066406 60.515625 274.65625 61.507812 273.296875 62.570312 C 269.238281 65.746094 265.664062 69.519531 262.574219 73.890625 C 260.636719 68.902344 258.082031 64.378906 254.914062 60.328125 C 254.652344 59.992188 254.390625 59.664062 254.121094 59.335938 C 253.886719 59.007812 253.625 58.699219 253.34375 58.414062 C 250.660156 55.300781 247.609375 52.515625 244.1875 50.054688 C 248.886719 48.183594 253.179688 45.730469 257.066406 42.6875 C 261.128906 39.515625 264.703125 35.742188 267.789062 31.371094 C 269.726562 36.359375 272.28125 40.878906 275.449219 44.933594 C 278.496094 48.828125 282.070312 52.25 286.179688 55.203125 C 283.507812 56.269531 280.964844 57.519531 278.558594 58.960938 C 278.199219 59.144531 277.855469 59.355469 277.527344 59.59375 Z M 301.171875 66.4375 C 321.71875 78.734375 332.382812 97.285156 336.429688 117.644531 C 341.628906 143.789062 335.625 172.925781 325.78125 195 C 323.636719 199.8125 320.867188 216.71875 317.414062 237.835938 C 310.628906 279.296875 301.296875 336.351562 285.957031 360.238281 C 277.628906 373.210938 267.59375 378.121094 255.355469 370.265625 C 247.609375 365.289062 241.058594 357.242188 236.238281 348.320312 C 231 338.628906 227.703125 327.679688 227.105469 318.492188 C 226.84375 314.480469 226.921875 309.644531 227.003906 304.453125 C 227.253906 289.042969 227.558594 269.945312 217.597656 261.792969 C 211.679688 256.949219 203.117188 254.53125 194.441406 254.53125 C 185.761719 254.53125 177.203125 256.949219 171.285156 261.792969 C 161.320312 269.945312 161.625 289.042969 161.875 304.453125 C 161.957031 309.644531 162.035156 314.480469 161.773438 318.492188 C 161.175781 327.679688 157.878906 338.628906 152.640625 348.320312 C 147.820312 357.242188 141.269531 365.289062 133.523438 370.265625 C 118.945312 379.625 107.6875 371.140625 98.804688 352.804688 C 93.367188 341.578125 88.746094 326.070312 84.761719 309.039062 C 83.289062 311.378906 81.929688 313.9375 80.679688 316.722656 C 79.476562 319.738281 76.386719 321.726562 72.992188 321.378906 C 68.898438 320.960938 65.917969 317.300781 66.335938 313.203125 C 67.488281 302.289062 66.011719 293.171875 61.914062 285.847656 C 61.839844 285.738281 61.765625 285.621094 61.699219 285.503906 C 57.507812 278.242188 50.527344 272.5 40.769531 268.273438 C 37.582031 267.117188 35.492188 263.890625 35.90625 260.378906 C 36.390625 256.285156 40.101562 253.355469 44.195312 253.839844 C 54.964844 255.148438 64.011719 253.6875 71.34375 249.453125 L 71.351562 249.46875 L 71.375 249.453125 C 71.988281 249.097656 72.589844 248.722656 73.1875 248.328125 C 72.664062 245.152344 72.058594 241.453125 71.46875 237.847656 C 68.011719 216.722656 65.246094 199.8125 63.097656 195 C 53.253906 172.925781 47.25 143.789062 52.449219 117.644531 C 56.660156 96.457031 68.035156 77.226562 90.257812 64.96875 C 119.539062 48.8125 139.332031 54.78125 161.054688 61.335938 C 171.375 64.449219 182.1875 67.710938 194.441406 68.253906 C 206.691406 67.710938 217.503906 64.449219 227.824219 61.335938 C 229.285156 60.894531 230.734375 60.457031 232.183594 60.03125 C 228.128906 57.652344 223.4375 55.75 218.105469 54.316406 L 218.109375 54.300781 C 214.972656 53.460938 212.640625 50.625 212.589844 47.21875 C 212.523438 43.109375 215.804688 39.722656 219.917969 39.660156 C 231.429688 39.441406 240.757812 36.539062 247.902344 30.953125 C 255.054688 25.359375 260.261719 16.855469 263.527344 5.4375 L 263.542969 5.441406 C 264.40625 2.40625 267.152344 0.140625 270.476562 0.0351562 C 274.585938 -0.09375 278.023438 3.136719 278.152344 7.246094 C 278.566406 19.085938 281.578125 28.59375 287.1875 35.765625 C 292.757812 42.890625 301.113281 47.949219 312.257812 50.945312 L 312.253906 50.960938 C 315.390625 51.796875 317.722656 54.632812 317.777344 58.039062 C 317.839844 62.152344 314.558594 65.535156 310.449219 65.601562 C 307.179688 65.664062 304.089844 65.941406 301.171875 66.4375 Z M 103.410156 277.359375 C 99.164062 278.460938 95.164062 280.070312 91.417969 282.1875 C 91.265625 282.261719 91.113281 282.34375 90.960938 282.429688 C 86.917969 284.761719 83.21875 287.671875 79.859375 291.152344 C 78.730469 286.632812 77.058594 282.410156 74.847656 278.484375 C 74.769531 278.332031 74.691406 278.179688 74.601562 278.03125 C 72.371094 274.164062 69.628906 270.632812 66.375 267.433594 C 70.792969 266.289062 74.941406 264.597656 78.816406 262.359375 L 78.808594 262.34375 C 81.226562 260.949219 83.523438 259.347656 85.695312 257.542969 C 85.96875 257.34375 86.226562 257.121094 86.46875 256.886719 C 87.65625 255.859375 88.804688 254.773438 89.917969 253.621094 C 91.046875 258.148438 92.71875 262.375 94.933594 266.300781 C 95.007812 266.453125 95.089844 266.605469 95.175781 266.757812 C 97.410156 270.625 100.15625 274.160156 103.410156 277.359375 Z M 111.675781 93.375 C 115.417969 91.667969 119.835938 93.3125 121.542969 97.054688 C 123.253906 100.792969 121.605469 105.210938 117.863281 106.921875 C 117.652344 107.019531 117.089844 107.300781 116.207031 107.75 C 115.476562 108.121094 114.867188 108.441406 114.363281 108.722656 C 106.714844 112.941406 102.757812 120.140625 101.207031 128.421875 C 98.964844 140.375 101.46875 154.515625 105.394531 166.15625 C 106.699219 170.058594 104.59375 174.28125 100.691406 175.585938 C 96.792969 176.894531 92.570312 174.789062 91.261719 170.886719 C 86.667969 157.253906 83.785156 140.421875 86.550781 125.675781 C 88.878906 113.261719 95.054688 102.332031 107.179688 95.640625 C 108.074219 95.148438 108.828125 94.746094 109.433594 94.4375 C 109.878906 94.210938 110.617188 93.859375 111.675781 93.375 Z M 99.660156 195.65625 C 98.773438 191.640625 101.308594 187.667969 105.320312 186.78125 C 109.335938 185.894531 113.308594 188.429688 114.195312 192.445312 C 114.683594 194.636719 115.007812 196.164062 115.214844 197.207031 C 115.347656 197.882812 115.65625 199.570312 116.078125 201.902344 C 116.800781 205.949219 114.109375 209.820312 110.0625 210.542969 C 106.015625 211.269531 102.144531 208.578125 101.421875 204.53125 C 101.296875 203.832031 101.03125 202.460938 100.558594 200.070312 C 100.160156 198.050781 99.847656 196.507812 99.660156 195.65625 Z M 99.660156 195.65625 " fill-opacity="1" fill-rule="evenodd"/></g></svg>