<svg xmlns="http://www.w3.org/2000/svg" xmlns:xlink="http://www.w3.org/1999/xlink" width="500" zoomAndPan="magnify" viewBox="0 0 375.12 383.03998" height="500" preserveAspectRatio="xMidYMid meet" version="1.0"><defs><clipPath id="81ca74552e"><path d="M 0.03125 0 L 374.09375 0 L 374.09375 374.0625 L 0.03125 374.0625 Z M 0.03125 0 " clip-rule="nonzero"/></clipPath></defs><g clip-path="url(#81ca74552e)"><path fill="#3a7ca5" d="M 187.015625 -0.03125 C 83.726562 -0.03125 0 83.699219 0 186.988281 C 0 290.277344 83.726562 374.003906 187.015625 374.003906 C 290.304688 374.003906 374.03125 290.277344 374.03125 186.988281 C 374.03125 83.699219 290.304688 -0.03125 187.015625 -0.03125 Z M 187.015625 336.597656 C 104.390625 336.597656 37.402344 269.609375 37.402344 186.988281 C 37.402344 104.363281 104.390625 37.375 187.015625 37.375 C 269.640625 37.375 336.628906 104.363281 336.628906 186.988281 C 336.628906 269.609375 269.640625 336.597656 187.015625 336.597656 Z M 279.347656 230.953125 C 276.523438 238.453125 269.378906 243.089844 261.824219 243.089844 C 259.636719 243.089844 257.429688 242.699219 255.238281 241.894531 L 204.707031 222.949219 C 182.9375 214.777344 168.316406 193.664062 168.316406 170.417969 L 168.316406 93.476562 C 168.316406 83.15625 176.675781 74.777344 187.015625 74.777344 C 197.359375 74.777344 205.71875 83.15625 205.71875 93.476562 L 205.71875 170.417969 C 205.71875 178.179688 210.597656 185.210938 217.855469 187.941406 L 268.386719 206.886719 C 278.054688 210.496094 282.957031 221.285156 279.347656 230.953125 Z M 279.347656 230.953125 " fill-opacity="1" fill-rule="nonzero"/></g></svg>