<svg xmlns="http://www.w3.org/2000/svg" xmlns:xlink="http://www.w3.org/1999/xlink" width="2000" zoomAndPan="magnify" viewBox="0 0 1500 1499.999933" height="2000" preserveAspectRatio="xMidYMid meet" version="1.0"><path fill="#ffffff" d="M 1350.507812 233.15625 C 1234.441406 0.847656 991.203125 99.316406 830.300781 164.480469 C 771.5 188.328125 715.769531 210.886719 680.640625 213.191406 C 650.683594 199.855469 621.632812 185.851562 593.558594 172.304688 C 426.996094 92.027344 254.503906 8.851562 142.347656 233.164062 C 62.59375 392.703125 138.085938 750.511719 281.601562 907.117188 C 283.066406 1300.957031 343.195312 1500.617188 460.382812 1500.617188 C 553.753906 1500.617188 578.058594 1383.539062 603.6875 1259.617188 C 635.179688 1107.609375 663.8125 1000.027344 746.425781 1000.027344 C 829.035156 1000.027344 857.671875 1107.609375 889.167969 1259.609375 C 914.871094 1383.53125 939.101562 1500.609375 1032.472656 1500.609375 C 1150.078125 1500.609375 1210.203125 1299.726562 1211.257812 903.511719 C 1342.410156 701.96875 1434.871094 401.953125 1350.507812 233.15625 Z M 1145.75 872.925781 C 1143.792969 875.863281 1142.304688 879.023438 1141.28125 882.398438 C 1140.261719 885.777344 1139.75 889.230469 1139.75 892.757812 C 1139.75 1244.875 1085.757812 1429.097656 1032.480469 1429.097656 C 997.28125 1429.097656 976.191406 1327.070312 959.21875 1245.117188 C 930.035156 1104.046875 893.640625 928.515625 746.425781 928.515625 C 599.207031 928.515625 562.828125 1104.046875 533.636719 1245.117188 C 516.667969 1327.070312 495.578125 1429.097656 460.378906 1429.097656 C 407.101562 1429.097656 353.109375 1244.871094 353.109375 892.757812 C 353.109375 890.410156 352.882812 888.085938 352.421875 885.785156 C 351.964844 883.480469 351.285156 881.246094 350.386719 879.078125 C 349.488281 876.90625 348.386719 874.847656 347.082031 872.894531 C 345.777344 870.945312 344.296875 869.136719 342.632812 867.480469 C 207.433594 732.242188 144.992188 387.808594 206.316406 265.136719 C 283.550781 110.765625 376.296875 146.976562 562.480469 236.710938 C 678.898438 292.832031 810.746094 356.417969 960.964844 356.417969 C 962.136719 356.417969 963.304688 356.363281 964.46875 356.246094 C 965.636719 356.132812 966.792969 355.960938 967.941406 355.730469 C 969.089844 355.503906 970.222656 355.21875 971.34375 354.878906 C 972.464844 354.539062 973.566406 354.144531 974.648438 353.695312 C 975.730469 353.25 976.789062 352.75 977.820312 352.195312 C 978.855469 351.644531 979.855469 351.042969 980.832031 350.394531 C 981.804688 349.742188 982.742188 349.046875 983.648438 348.300781 C 984.554688 347.558594 985.421875 346.773438 986.25 345.945312 C 987.078125 345.117188 987.863281 344.25 988.605469 343.347656 C 989.347656 342.441406 990.046875 341.5 990.695312 340.527344 C 991.347656 339.554688 991.949219 338.550781 992.5 337.519531 C 993.050781 336.484375 993.550781 335.425781 994 334.34375 C 994.449219 333.261719 994.84375 332.164062 995.183594 331.042969 C 995.523438 329.921875 995.808594 328.785156 996.035156 327.636719 C 996.261719 326.488281 996.433594 325.332031 996.550781 324.167969 C 996.664062 323 996.722656 321.832031 996.722656 320.660156 C 996.722656 319.492188 996.664062 318.324219 996.550781 317.15625 C 996.433594 315.992188 996.261719 314.835938 996.035156 313.6875 C 995.808594 312.539062 995.523438 311.402344 995.183594 310.28125 C 994.84375 309.160156 994.449219 308.058594 994 306.976562 C 993.550781 305.898438 993.050781 304.839844 992.5 303.804688 C 991.949219 302.773438 991.347656 301.769531 990.695312 300.796875 C 990.046875 299.824219 989.347656 298.882812 988.605469 297.976562 C 987.863281 297.074219 987.078125 296.207031 986.25 295.378906 C 985.421875 294.550781 984.554688 293.765625 983.648438 293.023438 C 982.742188 292.277344 981.804688 291.582031 980.832031 290.929688 C 979.855469 290.28125 978.855469 289.679688 977.820312 289.128906 C 976.789062 288.574219 975.730469 288.074219 974.648438 287.628906 C 973.566406 287.179688 972.464844 286.785156 971.34375 286.445312 C 970.222656 286.105469 969.089844 285.820312 967.941406 285.59375 C 966.792969 285.363281 965.636719 285.191406 964.46875 285.078125 C 963.304688 284.960938 962.136719 284.90625 960.964844 284.90625 C 932.28125 284.527344 903.792969 281.953125 875.507812 277.179688 C 847.21875 272.410156 819.464844 265.5 792.242188 256.445312 C 812.773438 248.730469 834.492188 239.929688 857.121094 230.78125 C 1051.332031 152.074219 1206.300781 104.621094 1286.542969 265.140625 C 1350.089844 392.253906 1288.214844 659.226562 1145.75 872.925781 Z M 1145.75 872.925781 " fill-opacity="1" fill-rule="nonzero"/></svg>