<svg xmlns="http://www.w3.org/2000/svg" xmlns:xlink="http://www.w3.org/1999/xlink" width="500" zoomAndPan="magnify" viewBox="0 0 375 374.999991" height="500" preserveAspectRatio="xMidYMid meet" version="1.0"><defs><clipPath id="7fb5979519"><path d="M 76.722656 2.875 L 297.972656 2.875 L 297.972656 169 L 76.722656 169 Z M 76.722656 2.875 " clip-rule="nonzero"/></clipPath><clipPath id="458c271496"><path d="M 135 189 L 240 189 L 240 371.875 L 135 371.875 Z M 135 189 " clip-rule="nonzero"/></clipPath></defs><g clip-path="url(#7fb5979519)"><path fill="#2f6690" d="M 267.226562 168.308594 L 107.78125 168.308594 C 104.746094 168.308594 102.230469 165.957031 102.023438 162.929688 C 101.085938 149.101562 96.410156 123.90625 89.355469 113.726562 C 81.351562 102.1875 77.007812 88.679688 76.800781 74.675781 C 76.523438 55.566406 83.746094 37.554688 97.144531 23.960938 C 110.546875 10.363281 128.4375 2.875 147.527344 2.875 C 154.414062 2.875 161.226562 3.863281 167.773438 5.816406 C 180.679688 9.664062 194.328125 9.664062 207.238281 5.816406 C 213.785156 3.863281 220.59375 2.875 227.480469 2.875 C 246.570312 2.875 264.464844 10.363281 277.863281 23.960938 C 291.261719 37.554688 298.488281 55.566406 298.207031 74.671875 C 298 88.679688 293.65625 102.183594 285.648438 113.730469 C 278.597656 123.90625 273.921875 149.101562 272.984375 162.929688 C 272.777344 165.957031 270.261719 168.308594 267.226562 168.308594 Z M 113.054688 156.769531 L 261.953125 156.769531 C 263.605469 141.585938 268.316406 118.484375 276.167969 107.15625 C 282.863281 97.5 286.496094 86.210938 286.667969 74.503906 C 286.902344 58.511719 280.859375 43.4375 269.644531 32.058594 C 258.429688 20.679688 243.457031 14.414062 227.480469 14.414062 C 221.710938 14.414062 216.011719 15.242188 210.535156 16.875 C 195.46875 21.367188 179.539062 21.367188 164.476562 16.875 C 158.996094 15.242188 153.296875 14.410156 147.53125 14.410156 C 131.554688 14.410156 116.578125 20.679688 105.363281 32.058594 C 94.152344 43.4375 88.105469 58.511719 88.339844 74.503906 C 88.515625 86.207031 92.144531 97.5 98.839844 107.152344 C 106.695312 118.484375 111.402344 141.585938 113.054688 156.765625 Z M 292.4375 74.589844 L 292.445312 74.589844 Z M 292.4375 74.589844 " fill-opacity="1" fill-rule="nonzero"/></g><path fill="#2f6690" d="M 246.675781 201.179688 L 128.332031 201.179688 C 126.28125 201.179688 124.382812 200.089844 123.347656 198.316406 C 122.316406 196.542969 122.300781 194.351562 123.3125 192.566406 C 126.433594 187.058594 128.410156 181.136719 129.183594 174.96875 C 129.667969 171.097656 129.667969 167.15625 129.183594 163.25 C 128.976562 161.609375 129.488281 159.957031 130.582031 158.71875 C 131.679688 157.480469 133.253906 156.769531 134.90625 156.769531 L 240.101562 156.769531 C 241.753906 156.769531 243.332031 157.480469 244.425781 158.71875 C 245.519531 159.957031 246.03125 161.609375 245.824219 163.25 C 245.339844 167.15625 245.339844 171.097656 245.824219 174.96875 C 246.597656 181.136719 248.574219 187.058594 251.695312 192.566406 C 252.707031 194.351562 252.695312 196.542969 251.660156 198.316406 C 250.628906 200.089844 248.730469 201.179688 246.675781 201.179688 Z M 137.378906 189.640625 L 237.628906 189.640625 C 236.035156 185.371094 234.945312 180.941406 234.375 176.40625 C 234.039062 173.722656 233.890625 171.015625 233.929688 168.308594 L 141.078125 168.308594 C 141.117188 171.015625 140.96875 173.722656 140.632812 176.40625 C 140.0625 180.941406 138.972656 185.367188 137.378906 189.640625 Z M 137.378906 189.640625 " fill-opacity="1" fill-rule="nonzero"/><g clip-path="url(#458c271496)"><path fill="#2f6690" d="M 203.367188 372.121094 L 171.640625 372.121094 C 167.289062 372.121094 163.253906 369.957031 160.839844 366.339844 L 136.679688 330.101562 C 136.050781 329.15625 135.710938 328.042969 135.710938 326.902344 L 135.710938 195.410156 C 135.710938 192.222656 138.296875 189.640625 141.480469 189.640625 L 233.527344 189.640625 C 236.710938 189.640625 239.296875 192.222656 239.296875 195.410156 L 239.296875 326.902344 C 239.296875 328.042969 238.960938 329.15625 238.328125 330.101562 L 214.167969 366.339844 C 211.757812 369.957031 207.71875 372.121094 203.367188 372.121094 Z M 147.25 325.15625 L 170.4375 359.9375 C 170.707031 360.339844 171.15625 360.582031 171.640625 360.582031 L 203.367188 360.582031 C 203.851562 360.582031 204.300781 360.339844 204.566406 359.9375 L 227.757812 325.15625 L 227.757812 201.179688 L 147.25 201.179688 Z M 233.527344 326.902344 L 233.535156 326.902344 Z M 233.527344 326.902344 " fill-opacity="1" fill-rule="nonzero"/></g><path fill="#2f6690" d="M 246.675781 234.054688 L 128.332031 234.054688 C 125.148438 234.054688 122.5625 231.46875 122.5625 228.285156 C 122.5625 225.097656 125.148438 222.515625 128.332031 222.515625 L 246.675781 222.515625 C 249.863281 222.515625 252.445312 225.097656 252.445312 228.285156 C 252.445312 231.46875 249.863281 234.054688 246.675781 234.054688 Z M 246.675781 234.054688 " fill-opacity="1" fill-rule="nonzero"/><path fill="#2f6690" d="M 246.675781 266.925781 L 128.332031 266.925781 C 125.148438 266.925781 122.5625 264.34375 122.5625 261.15625 C 122.5625 257.96875 125.148438 255.386719 128.332031 255.386719 L 246.675781 255.386719 C 249.863281 255.386719 252.445312 257.96875 252.445312 261.15625 C 252.445312 264.34375 249.863281 266.925781 246.675781 266.925781 Z M 246.675781 266.925781 " fill-opacity="1" fill-rule="nonzero"/><path fill="#2f6690" d="M 246.675781 299.800781 L 128.332031 299.800781 C 125.148438 299.800781 122.5625 297.214844 122.5625 294.03125 C 122.5625 290.84375 125.148438 288.261719 128.332031 288.261719 L 246.675781 288.261719 C 249.863281 288.261719 252.445312 290.84375 252.445312 294.03125 C 252.445312 297.214844 249.863281 299.800781 246.675781 299.800781 Z M 246.675781 299.800781 " fill-opacity="1" fill-rule="nonzero"/><path fill="#2f6690" d="M 246.675781 332.671875 L 128.332031 332.671875 C 125.148438 332.671875 122.5625 330.089844 122.5625 326.902344 C 122.5625 323.714844 125.148438 321.132812 128.332031 321.132812 L 246.675781 321.132812 C 249.863281 321.132812 252.445312 323.714844 252.445312 326.902344 C 252.445312 330.089844 249.863281 332.671875 246.675781 332.671875 Z M 246.675781 332.671875 " fill-opacity="1" fill-rule="nonzero"/></svg>