<svg xmlns="http://www.w3.org/2000/svg" xmlns:xlink="http://www.w3.org/1999/xlink" width="500" zoomAndPan="magnify" viewBox="0 0 375.12 383.03998" height="500" preserveAspectRatio="xMidYMid meet" version="1.0"><defs><clipPath id="c30de321dc"><path d="M 0.03125 26 L 365 26 L 365 351 L 0.03125 351 Z M 0.03125 26 " clip-rule="nonzero"/></clipPath><clipPath id="9529121f30"><path d="M 331 333 L 374.09375 333 L 374.09375 351 L 331 351 Z M 331 333 " clip-rule="nonzero"/></clipPath></defs><g clip-path="url(#c30de321dc)"><path fill="#2e0db0" d="M 154.628906 257.167969 L 351.691406 92.070312 C 359.597656 85.4375 364.445312 75.707031 364.867188 65.375 C 365.335938 55.046875 361.382812 44.929688 354.070312 37.617188 C 339.660156 23.207031 316.242188 23.207031 301.832031 37.617188 L 117.519531 221.886719 L 3.304688 336.105469 C 0.753906 338.652344 0.0742188 342.523438 1.644531 345.796875 C 3.089844 348.769531 6.066406 350.597656 9.296875 350.597656 C 9.59375 350.597656 9.933594 350.597656 10.230469 350.554688 L 55.925781 345.496094 C 80.707031 342.734375 104.042969 331.511719 121.683594 313.914062 C 131.632812 303.96875 139.496094 292.363281 145.0625 279.398438 Z M 313.816406 49.648438 C 317.601562 45.863281 322.574219 43.824219 327.929688 43.824219 C 333.242188 43.824219 338.257812 45.90625 342.042969 49.648438 C 346.039062 53.644531 348.121094 58.957031 347.867188 64.609375 C 347.609375 70.265625 345.101562 75.40625 340.765625 79.019531 L 148.082031 240.460938 L 146.125 238.507812 L 135.542969 227.921875 Z M 129.464844 272.683594 C 124.789062 283.648438 118.113281 293.46875 109.699219 301.886719 C 94.777344 316.804688 75.054688 326.285156 54.097656 328.621094 L 32.503906 331.003906 L 123.554688 239.953125 L 137.539062 253.9375 Z M 129.464844 272.683594 " fill-opacity="1" fill-rule="nonzero"/></g><path fill="#2e0db0" d="M 161.597656 333.253906 L 136.09375 333.253906 C 131.417969 333.253906 127.59375 337.082031 127.59375 341.757812 C 127.59375 346.433594 131.417969 350.257812 136.09375 350.257812 L 161.597656 350.257812 C 166.273438 350.257812 170.101562 346.433594 170.101562 341.757812 C 170.101562 337.082031 166.316406 333.253906 161.597656 333.253906 Z M 161.597656 333.253906 " fill-opacity="1" fill-rule="nonzero"/><path fill="#2e0db0" d="M 229.609375 333.253906 L 204.105469 333.253906 C 199.429688 333.253906 195.605469 337.082031 195.605469 341.757812 C 195.605469 346.433594 199.429688 350.257812 204.105469 350.257812 L 229.609375 350.257812 C 234.285156 350.257812 238.113281 346.433594 238.113281 341.757812 C 238.113281 337.082031 234.328125 333.253906 229.609375 333.253906 Z M 229.609375 333.253906 " fill-opacity="1" fill-rule="nonzero"/><path fill="#2e0db0" d="M 297.621094 333.253906 L 272.117188 333.253906 C 267.441406 333.253906 263.617188 337.082031 263.617188 341.757812 C 263.617188 346.433594 267.441406 350.257812 272.117188 350.257812 L 297.621094 350.257812 C 302.296875 350.257812 306.125 346.433594 306.125 341.757812 C 306.125 337.082031 302.339844 333.253906 297.621094 333.253906 Z M 297.621094 333.253906 " fill-opacity="1" fill-rule="nonzero"/><g clip-path="url(#9529121f30)"><path fill="#2e0db0" d="M 365.632812 333.253906 L 340.128906 333.253906 C 335.453125 333.253906 331.628906 337.082031 331.628906 341.757812 C 331.628906 346.433594 335.453125 350.257812 340.128906 350.257812 L 365.632812 350.257812 C 370.308594 350.257812 374.136719 346.433594 374.136719 341.757812 C 374.136719 337.082031 370.351562 333.253906 365.632812 333.253906 Z M 365.632812 333.253906 " fill-opacity="1" fill-rule="nonzero"/></g></svg>