<svg xmlns="http://www.w3.org/2000/svg" xmlns:xlink="http://www.w3.org/1999/xlink" width="500" zoomAndPan="magnify" viewBox="0 0 375.12 383.03998" height="500" preserveAspectRatio="xMidYMid meet" version="1.0"><defs><clipPath id="37b6d23587"><path d="M 11 0 L 363 0 L 363 374.0625 L 11 374.0625 Z M 11 0 " clip-rule="nonzero"/></clipPath></defs><path fill="#2e0db0" d="M 249.402344 207.355469 L 124.742188 207.355469 L 59.488281 312.34375 C 56.832031 316.464844 57.894531 320.1875 59.222656 322.449219 C 60.152344 324.304688 62.679688 327.496094 67.726562 327.496094 L 306.28125 327.496094 C 311.199219 327.496094 313.726562 324.835938 315.050781 322.449219 C 316.117188 320.585938 317.445312 316.730469 314.785156 312.34375 Z M 249.402344 207.355469 " fill-opacity="1" fill-rule="nonzero"/><g clip-path="url(#37b6d23587)"><path fill="#2e0db0" d="M 354.257812 287.886719 L 254.296875 127.125 C 251.355469 122.386719 249.796875 116.933594 249.796875 111.367188 L 249.796875 26.578125 L 260.351562 26.578125 C 267.691406 26.578125 273.640625 20.636719 273.640625 13.289062 C 273.640625 5.945312 267.691406 0 260.351562 0 L 113.808594 0 C 106.472656 0 100.519531 5.945312 100.519531 13.289062 C 100.519531 20.636719 106.472656 26.578125 113.808594 26.578125 L 124.363281 26.578125 L 124.363281 111.367188 C 124.363281 116.933594 122.808594 122.386719 119.871094 127.109375 L 19.90625 287.886719 C 8.933594 305.523438 8.414062 326.898438 18.503906 345.054688 C 28.59375 363.226562 47.023438 374.0625 67.796875 374.0625 L 306.367188 374.0625 C 327.136719 374.0625 345.566406 363.226562 355.660156 345.054688 C 365.75 326.898438 365.226562 305.523438 354.257812 287.886719 Z M 332.425781 332.15625 C 327.089844 341.746094 317.351562 347.484375 306.367188 347.484375 L 67.796875 347.484375 C 56.8125 347.484375 47.070312 341.746094 41.734375 332.15625 C 36.402344 322.550781 36.675781 311.246094 42.472656 301.929688 L 142.445312 141.140625 C 148.003906 132.183594 150.945312 121.894531 150.945312 111.367188 L 150.945312 26.578125 L 223.21875 26.578125 L 223.21875 111.367188 C 223.21875 121.894531 226.15625 132.183594 231.722656 141.152344 L 331.6875 301.929688 C 337.484375 311.246094 337.761719 322.550781 332.425781 332.15625 Z M 332.425781 332.15625 " fill-opacity="1" fill-rule="nonzero"/></g></svg>