<svg xmlns="http://www.w3.org/2000/svg" xmlns:xlink="http://www.w3.org/1999/xlink" width="500" zoomAndPan="magnify" viewBox="0 0 375.12 383.03998" height="500" preserveAspectRatio="xMidYMid meet" version="1.0"><defs><clipPath id="12d1d3aac1"><path d="M 0.03125 4.910156 L 374.09375 4.910156 L 374.09375 369.246094 L 0.03125 369.246094 Z M 0.03125 4.910156 " clip-rule="nonzero"/></clipPath></defs><g clip-path="url(#12d1d3aac1)"><path fill="#2f6690" d="M 257.585938 205.605469 C 279.945312 202.882812 297.289062 183.421875 297.289062 160.78125 C 297.289062 151.878906 294.707031 143.316406 289.839844 135.960938 C 294.046875 128.964844 296.257812 120.957031 296.257812 112.746094 C 296.257812 91.703125 281.734375 73.519531 261.46875 68.765625 L 261.476562 68.605469 L 261.492188 68.605469 L 261.492188 68.144531 L 261.539062 67.25 L 261.492188 67.25 L 261.492188 67.078125 C 261.492188 48.199219 252.054688 33.347656 235.621094 26.332031 C 229.675781 23.804688 223.046875 22.449219 216.414062 22.449219 C 205.085938 22.449219 194.03125 26.332031 185.988281 33.136719 C 183.320312 32.863281 180.640625 32.726562 177.984375 32.683594 L 177.984375 32.667969 L 176.464844 32.667969 C 121.507812 32.667969 76.796875 77.378906 76.796875 132.347656 C 76.796875 161.679688 87.523438 177.949219 98.890625 195.152344 C 105.566406 205.265625 112.480469 215.734375 117.414062 229.535156 L 121.394531 240.714844 C 113.265625 244.929688 108.121094 253.265625 108.121094 262.527344 C 108.121094 273.082031 114.8125 282.261719 124.484375 285.683594 C 120.996094 290.023438 119.042969 295.457031 119.042969 301.089844 C 119.042969 311.867188 126.261719 321.464844 136.46875 324.597656 L 136.46875 329.15625 C 136.46875 351.214844 154.40625 369.152344 176.464844 369.152344 C 198.519531 369.152344 216.476562 351.214844 216.476562 329.15625 L 216.476562 324.597656 C 226.664062 321.464844 233.878906 311.867188 233.878906 301.089844 C 233.878906 295.457031 231.933594 290.023438 228.4375 285.683594 C 238.132812 282.269531 244.824219 273.089844 244.824219 262.527344 C 244.824219 255.164062 241.5625 248.320312 235.992188 243.671875 C 248.496094 233.320312 256.398438 214.433594 257.585938 205.605469 Z M 107.734375 189.316406 C 96.808594 172.800781 87.394531 158.507812 87.394531 132.347656 C 87.394531 84.796875 124.007812 46.164062 171.164062 43.414062 L 171.164062 153.378906 L 155.027344 153.378906 L 155.027344 141.949219 C 155.027344 129.796875 145.132812 119.929688 132.992188 119.929688 C 120.84375 119.929688 110.957031 129.796875 110.957031 141.949219 C 110.957031 154.089844 120.84375 163.980469 132.992188 163.980469 L 147.0625 163.980469 L 147.0625 237.945312 L 132.691406 237.945312 C 132.355469 237.945312 132.015625 237.957031 131.675781 237.972656 L 127.367188 225.96875 C 122.023438 210.949219 114.75 199.960938 107.734375 189.316406 Z M 171.164062 163.980469 L 171.164062 237.945312 L 157.667969 237.945312 L 157.667969 163.980469 Z M 144.429688 141.949219 L 144.429688 153.378906 L 132.992188 153.378906 C 126.679688 153.378906 121.554688 148.253906 121.554688 141.949219 C 121.554688 135.65625 126.679688 130.53125 132.992188 130.53125 C 139.296875 130.53125 144.429688 135.65625 144.429688 141.949219 Z M 205.878906 329.15625 C 205.878906 345.378906 192.683594 358.546875 176.464844 358.546875 C 160.242188 358.546875 147.0625 345.378906 147.0625 329.15625 L 147.0625 325.679688 L 205.878906 325.679688 Z M 209.316406 315.078125 L 143.636719 315.078125 C 135.90625 315.078125 129.640625 308.816406 129.640625 301.089844 C 129.640625 293.367188 135.90625 287.101562 143.636719 287.101562 L 209.316406 287.101562 C 217.011719 287.101562 223.28125 293.367188 223.28125 301.089844 C 223.28125 308.816406 217.011719 315.078125 209.316406 315.078125 Z M 220.230469 276.503906 L 132.691406 276.503906 C 124.984375 276.503906 118.722656 270.234375 118.722656 262.527344 C 118.722656 254.808594 124.984375 248.539062 132.691406 248.539062 L 220.230469 248.539062 C 227.960938 248.539062 234.226562 254.808594 234.226562 262.527344 C 234.226562 270.234375 227.960938 276.503906 220.230469 276.503906 Z M 224.917969 238.414062 C 223.363281 238.101562 221.796875 237.945312 220.230469 237.945312 L 181.761719 237.945312 L 181.761719 43.414062 C 183.5625 43.519531 185.367188 43.695312 187.128906 43.90625 C 187.339844 43.929688 187.554688 43.953125 187.773438 43.953125 C 189.144531 43.953125 190.429688 43.4375 191.4375 42.46875 C 197.703125 36.480469 206.78125 33.03125 216.347656 33.03125 C 221.5625 33.03125 226.777344 34.082031 231.457031 36.074219 C 243.816406 41.355469 250.894531 52.664062 250.894531 67.078125 C 250.894531 67.730469 250.871094 68.386719 250.835938 69.160156 L 250.8125 69.4375 C 250.773438 70.039062 250.714844 70.644531 250.660156 71.226562 L 250.59375 71.734375 C 249.230469 81.996094 243.355469 91.035156 234.484375 96.5 C 233.28125 97.25 232.441406 98.40625 232.121094 99.777344 C 231.773438 101.15625 232.03125 102.59375 232.765625 103.796875 C 233.726562 105.355469 235.421875 106.304688 237.269531 106.304688 C 238.253906 106.304688 239.222656 106.023438 240.0625 105.507812 C 249.851562 99.476562 256.8125 90.226562 259.84375 79.300781 C 274.929688 83.214844 285.652344 96.945312 285.652344 112.746094 C 285.652344 119.921875 283.488281 126.785156 279.363281 132.621094 C 279.339844 132.652344 279.324219 132.667969 279.304688 132.699219 L 279.242188 132.804688 C 272.761719 141.878906 262.226562 147.304688 251.089844 147.304688 C 248.167969 147.304688 245.785156 149.691406 245.785156 152.605469 C 245.785156 155.527344 248.167969 157.910156 251.089844 157.910156 C 262.984375 157.910156 274.359375 153.179688 282.792969 144.855469 C 285.351562 149.742188 286.683594 155.1875 286.683594 160.78125 C 286.683594 178.078125 273.421875 192.988281 256.34375 195.09375 C 254.269531 195.371094 253.492188 195.394531 252.613281 195.371094 C 252.453125 195.359375 252.289062 195.351562 252.121094 195.351562 C 251.523438 195.351562 250.871094 195.328125 250.105469 195.28125 C 249.941406 195.265625 249.789062 195.257812 249.644531 195.242188 C 241.113281 194.667969 233.167969 190.945312 227.210938 184.753906 C 226.195312 183.699219 224.847656 183.117188 223.386719 183.117188 C 222.015625 183.117188 220.707031 183.65625 219.714844 184.601562 C 218.6875 185.585938 218.109375 186.917969 218.089844 188.308594 C 218.066406 189.726562 218.601562 191.082031 219.574219 192.085938 C 226.882812 199.6875 236.519531 204.441406 246.898438 205.628906 C 245.253906 214.070312 235.992188 232.726562 224.917969 238.414062 Z M 89.777344 221.914062 C 90.140625 223.285156 89.96875 224.703125 89.261719 225.949219 L 64.886719 268.132812 C 63.941406 269.785156 62.183594 270.792969 60.292969 270.792969 C 59.371094 270.792969 58.449219 270.535156 57.632812 270.085938 C 56.410156 269.375 55.550781 268.238281 55.1875 266.867188 C 54.824219 265.492188 54.996094 264.074219 55.703125 262.832031 L 80.078125 220.648438 C 81.023438 218.996094 82.78125 217.988281 84.667969 217.988281 C 85.59375 217.988281 86.515625 218.246094 87.308594 218.695312 C 88.554688 219.402344 89.410156 220.5625 89.777344 221.914062 Z M 13.519531 67.425781 C 14.464844 65.773438 16.222656 64.765625 18.109375 64.765625 C 19.03125 64.765625 19.957031 65.019531 20.75 65.472656 L 62.976562 89.824219 C 64.179688 90.535156 65.058594 91.671875 65.421875 93.042969 C 65.789062 94.417969 65.617188 95.832031 64.90625 97.054688 C 63.964844 98.707031 62.203125 99.71875 60.316406 99.71875 C 59.394531 99.71875 58.472656 99.480469 57.675781 99.007812 L 15.472656 74.65625 C 12.941406 73.195312 12.058594 69.957031 13.519531 67.425781 Z M 62.976562 185.886719 L 20.75 210.261719 C 19.957031 210.714844 19.03125 210.96875 18.109375 210.96875 C 16.222656 210.96875 14.464844 209.960938 13.519531 208.308594 C 12.8125 207.109375 12.640625 205.671875 13.003906 204.296875 C 13.367188 202.925781 14.226562 201.785156 15.472656 201.078125 L 57.675781 176.703125 C 58.46875 176.253906 59.394531 175.996094 60.316406 175.996094 C 62.203125 175.996094 63.964844 177.027344 64.90625 178.65625 C 65.617188 179.878906 65.789062 181.296875 65.421875 182.667969 C 65.058594 184.042969 64.199219 185.179688 62.976562 185.886719 Z M 55.703125 12.859375 C 54.996094 11.660156 54.824219 10.222656 55.1875 8.847656 C 55.550781 7.472656 56.410156 6.335938 57.632812 5.628906 C 58.449219 5.179688 59.371094 4.921875 60.292969 4.921875 C 62.183594 4.921875 63.941406 5.929688 64.886719 7.582031 L 89.261719 49.785156 C 89.96875 51.011719 90.140625 52.425781 89.777344 53.800781 C 89.410156 55.171875 88.554688 56.308594 87.308594 57.019531 C 86.515625 57.46875 85.59375 57.726562 84.667969 57.726562 C 82.78125 57.726562 81.023438 56.71875 80.078125 55.085938 Z M 374.015625 137.867188 C 374.015625 140.785156 371.632812 143.167969 368.714844 143.167969 L 319.984375 143.167969 C 317.066406 143.167969 314.6875 140.785156 314.6875 137.867188 C 314.6875 134.949219 317.066406 132.566406 319.984375 132.566406 L 368.714844 132.566406 C 371.632812 132.566406 374.015625 134.949219 374.015625 137.867188 Z M 311.125 89.824219 L 353.308594 65.472656 C 354.101562 65.019531 355.023438 64.765625 355.949219 64.765625 C 357.835938 64.765625 359.59375 65.773438 360.539062 67.425781 C 362 69.957031 361.117188 73.195312 358.585938 74.65625 L 316.402344 99.007812 C 315.609375 99.480469 314.6875 99.71875 313.765625 99.71875 C 311.875 99.71875 310.117188 98.707031 309.171875 97.054688 C 307.710938 94.523438 308.59375 91.285156 311.125 89.824219 Z M 318.375 262.851562 C 319.835938 265.363281 318.957031 268.625 316.425781 270.085938 C 315.628906 270.535156 314.707031 270.792969 313.785156 270.792969 C 311.898438 270.792969 310.136719 269.785156 309.191406 268.132812 L 284.816406 225.925781 C 284.109375 224.703125 283.917969 223.285156 284.304688 221.914062 C 284.667969 220.5625 285.546875 219.402344 286.75 218.695312 C 287.566406 218.246094 288.488281 217.988281 289.410156 217.988281 C 291.296875 217.988281 293.058594 218.996094 294 220.648438 Z M 284.816406 49.789062 L 309.191406 7.582031 C 310.136719 5.929688 311.898438 4.921875 313.785156 4.921875 C 314.707031 4.921875 315.628906 5.179688 316.425781 5.628906 C 318.957031 7.089844 319.835938 10.351562 318.375 12.859375 L 294 55.085938 C 293.058594 56.71875 291.296875 57.726562 289.410156 57.726562 C 288.488281 57.726562 287.566406 57.46875 286.75 57.019531 C 284.238281 55.558594 283.359375 52.296875 284.816406 49.789062 Z M 361.074219 204.296875 C 361.441406 205.671875 361.246094 207.109375 360.539062 208.332031 C 359.59375 209.960938 357.835938 210.96875 355.949219 210.96875 C 355.023438 210.96875 354.101562 210.714844 353.285156 210.261719 L 311.125 185.886719 C 309.878906 185.179688 309.023438 184.042969 308.65625 182.667969 C 308.269531 181.296875 308.464844 179.878906 309.171875 178.636719 C 310.117188 177.027344 311.875 175.996094 313.765625 175.996094 C 314.6875 175.996094 315.609375 176.253906 316.425781 176.703125 L 358.609375 201.078125 C 359.808594 201.785156 360.691406 202.925781 361.074219 204.296875 Z M 54.09375 143.167969 L 5.363281 143.167969 C 2.445312 143.167969 0.0664062 140.785156 0.0664062 137.867188 C 0.0664062 134.949219 2.445312 132.566406 5.363281 132.566406 L 54.09375 132.566406 C 57.011719 132.566406 59.394531 134.949219 59.394531 137.867188 C 59.394531 140.785156 57.011719 143.167969 54.09375 143.167969 Z M 54.09375 143.167969 " fill-opacity="1" fill-rule="nonzero"/></g></svg>