<svg xmlns="http://www.w3.org/2000/svg" xmlns:xlink="http://www.w3.org/1999/xlink" width="500" zoomAndPan="magnify" viewBox="0 0 375.12 383.03998" height="500" preserveAspectRatio="xMidYMid meet" version="1.0"><defs><clipPath id="0884c31451"><path d="M 0.03125 36.003906 L 374.09375 36.003906 L 374.09375 338 L 0.03125 338 Z M 0.03125 36.003906 " clip-rule="nonzero"/></clipPath></defs><g clip-path="url(#0884c31451)"><path fill="#3a7ca5" d="M 172.792969 121.523438 L 100.113281 48.839844 L 17.054688 48.839844 L 115.617188 147.402344 C 131.335938 133.660156 151.050781 124.375 172.792969 121.523438 Z M 195.871094 185.410156 L 207.261719 205.488281 L 229.867188 210.117188 C 231.667969 210.488281 233.277344 211.304688 234.597656 212.484375 C 235.925781 213.671875 236.917969 215.175781 237.480469 216.90625 C 238.054688 218.667969 238.140625 220.472656 237.769531 222.1875 C 237.394531 223.910156 236.574219 225.511719 235.332031 226.871094 C 235.222656 226.992188 235.109375 227.105469 234.992188 227.214844 L 219.75 243.886719 L 222.339844 266.859375 C 222.542969 268.683594 222.265625 270.460938 221.558594 272.074219 C 220.84375 273.691406 219.714844 275.097656 218.21875 276.1875 C 216.742188 277.257812 215.050781 277.894531 213.269531 278.074219 C 211.511719 278.25 209.742188 277.96875 208.089844 277.214844 L 187.0625 267.664062 L 166.035156 277.214844 C 164.378906 277.96875 162.609375 278.25 160.855469 278.074219 C 159.070312 277.890625 157.378906 277.257812 155.90625 276.1875 C 154.410156 275.101562 153.28125 273.691406 152.566406 272.074219 C 151.855469 270.464844 151.578125 268.683594 151.78125 266.859375 L 154.371094 243.886719 L 138.8125 226.871094 L 138.804688 226.859375 L 138.789062 226.871094 C 137.550781 225.511719 136.726562 223.90625 136.355469 222.1875 C 135.980469 220.46875 136.070312 218.667969 136.640625 216.90625 C 137.203125 215.171875 138.195312 213.671875 139.523438 212.484375 C 140.847656 211.304688 142.457031 210.488281 144.253906 210.117188 L 166.859375 205.488281 L 178.25 185.410156 C 179.160156 183.808594 180.4375 182.527344 181.96875 181.636719 C 183.5 180.742188 185.238281 180.265625 187.0625 180.265625 C 188.886719 180.265625 190.621094 180.742188 192.15625 181.636719 C 193.6875 182.527344 194.960938 183.808594 195.871094 185.410156 Z M 196.886719 212.640625 L 187.0625 195.324219 L 177.234375 212.640625 C 176.5 213.941406 175.539062 215.019531 174.386719 215.859375 C 173.246094 216.6875 171.925781 217.261719 170.453125 217.5625 L 150.941406 221.558594 L 164.058594 235.910156 C 164.175781 236.019531 164.289062 236.136719 164.398438 236.257812 C 165.394531 237.347656 166.117188 238.585938 166.558594 239.949219 C 167.003906 241.316406 167.144531 242.742188 166.984375 244.207031 L 164.753906 263.992188 L 182.886719 255.757812 C 184.238281 255.144531 185.644531 254.835938 187.0625 254.835938 C 188.480469 254.835938 189.882812 255.144531 191.238281 255.757812 L 209.367188 263.992188 L 207.140625 244.207031 C 206.976562 242.742188 207.117188 241.316406 207.5625 239.949219 C 208.003906 238.585938 208.730469 237.347656 209.722656 236.257812 L 209.734375 236.269531 L 209.746094 236.257812 L 223.183594 221.558594 L 203.671875 217.5625 C 202.195312 217.261719 200.875 216.6875 199.734375 215.859375 C 198.582031 215.023438 197.625 213.945312 196.886719 212.640625 Z M 106.625 156.21875 L 2.777344 52.367188 C 1.421875 51.015625 0.542969 49.332031 0.183594 47.511719 C -0.171875 45.738281 0 43.859375 0.742188 42.078125 C 1.472656 40.316406 2.679688 38.871094 4.207031 37.851562 C 5.75 36.820312 7.558594 36.25 9.453125 36.25 L 101.414062 36.25 C 102.664062 36.25 103.875 36.492188 105.035156 36.972656 C 105.234375 37.054688 105.429688 37.148438 105.617188 37.25 C 106.523438 37.699219 107.347656 38.296875 108.082031 39.027344 L 108.09375 39.015625 L 187.0625 117.984375 L 266.03125 39.015625 C 266.222656 38.824219 266.421875 38.644531 266.632812 38.484375 C 267.375 37.855469 268.199219 37.351562 269.089844 36.980469 L 269.089844 36.972656 C 270.246094 36.492188 271.457031 36.25 272.707031 36.25 L 364.667969 36.25 C 366.566406 36.25 368.371094 36.820312 369.914062 37.851562 C 371.441406 38.871094 372.652344 40.320312 373.382812 42.078125 C 374.121094 43.863281 374.292969 45.738281 373.941406 47.511719 C 373.582031 49.328125 372.699219 51.015625 371.347656 52.367188 L 267.496094 156.21875 C 285.003906 175.5 295.671875 201.109375 295.671875 229.203125 C 295.671875 259.195312 283.515625 286.347656 263.859375 306 C 244.207031 325.65625 217.054688 337.8125 187.0625 337.8125 C 157.070312 337.8125 129.917969 325.65625 110.261719 306 C 90.609375 286.347656 78.449219 259.195312 78.449219 229.203125 C 78.449219 201.109375 89.121094 175.5 106.625 156.21875 Z M 258.507812 147.402344 L 357.070312 48.839844 L 274.011719 48.839844 L 201.328125 121.523438 C 223.070312 124.375 242.785156 133.660156 258.507812 147.402344 Z M 254.957031 161.308594 C 272.332031 178.679688 283.082031 202.6875 283.082031 229.203125 C 283.082031 255.71875 272.332031 279.722656 254.957031 297.097656 C 237.582031 314.472656 213.578125 325.222656 187.0625 325.222656 C 160.546875 325.222656 136.539062 314.472656 119.164062 297.097656 C 101.789062 279.722656 91.042969 255.71875 91.042969 229.203125 C 91.042969 202.6875 101.789062 178.683594 119.164062 161.308594 C 136.539062 143.929688 160.546875 133.183594 187.0625 133.183594 C 213.574219 133.183594 237.582031 143.929688 254.957031 161.308594 Z M 187.0625 145.296875 C 210.230469 145.296875 231.207031 154.6875 246.394531 169.871094 C 261.574219 185.054688 270.96875 206.035156 270.96875 229.203125 C 270.96875 252.371094 261.578125 273.351562 246.394531 288.535156 C 231.207031 303.71875 210.230469 313.109375 187.0625 313.109375 C 163.890625 313.109375 142.914062 303.71875 127.730469 288.535156 C 112.546875 273.351562 103.15625 252.371094 103.15625 229.203125 C 103.15625 206.035156 112.546875 185.054688 127.730469 169.871094 C 142.914062 154.6875 163.890625 145.296875 187.0625 145.296875 Z M 237.488281 178.773438 C 224.585938 165.871094 206.753906 157.886719 187.0625 157.886719 C 167.367188 157.886719 149.539062 165.871094 136.632812 178.773438 C 123.726562 191.679688 115.746094 209.511719 115.746094 229.203125 C 115.746094 248.898438 123.730469 266.726562 136.632812 279.632812 C 149.539062 292.535156 167.367188 300.519531 187.0625 300.519531 C 206.753906 300.519531 224.585938 292.535156 237.488281 279.632812 C 250.394531 266.726562 258.378906 248.898438 258.378906 229.203125 C 258.378906 209.511719 250.394531 191.679688 237.488281 178.773438 Z M 237.488281 178.773438 " fill-opacity="1" fill-rule="evenodd"/></g></svg>