<svg xmlns="http://www.w3.org/2000/svg" xmlns:xlink="http://www.w3.org/1999/xlink" width="500" zoomAndPan="magnify" viewBox="0 0 375.12 383.03998" height="500" preserveAspectRatio="xMidYMid meet" version="1.0"><defs><clipPath id="07eb806f1f"><path d="M 197 128 L 369.277344 128 L 369.277344 374.0625 L 197 374.0625 Z M 197 128 " clip-rule="nonzero"/></clipPath><clipPath id="383b209193"><path d="M 4.941406 128 L 177 128 L 177 374.0625 L 4.941406 374.0625 Z M 4.941406 128 " clip-rule="nonzero"/></clipPath></defs><path fill="#2f6690" d="M 187.0625 91.070312 C 195.546875 91.070312 203.523438 87.765625 209.523438 81.765625 C 215.523438 75.765625 218.828125 67.789062 218.828125 59.304688 C 218.828125 50.820312 215.523438 42.84375 209.523438 36.84375 C 203.523438 30.84375 195.546875 27.539062 187.0625 27.539062 C 178.578125 27.539062 170.601562 30.84375 164.601562 36.84375 C 158.601562 42.839844 155.296875 50.820312 155.296875 59.304688 C 155.296875 67.789062 158.601562 75.765625 164.601562 81.765625 C 170.601562 87.765625 178.578125 91.070312 187.0625 91.070312 Z M 187.0625 36.566406 C 199.597656 36.566406 209.796875 46.765625 209.796875 59.304688 C 209.796875 71.839844 199.597656 82.039062 187.0625 82.039062 C 174.523438 82.039062 164.324219 71.839844 164.324219 59.304688 C 164.324219 46.765625 174.523438 36.566406 187.0625 36.566406 Z M 187.0625 36.566406 " fill-opacity="1" fill-rule="nonzero"/><path fill="#2f6690" d="M 253.863281 63.53125 C 262.351562 63.53125 270.324219 60.226562 276.324219 54.226562 C 282.324219 48.230469 285.628906 40.25 285.628906 31.765625 C 285.628906 23.28125 282.324219 15.304688 276.324219 9.304688 C 270.324219 3.304688 262.347656 0 253.863281 0 C 245.378906 0 237.402344 3.304688 231.402344 9.304688 C 225.402344 15.304688 222.097656 23.28125 222.097656 31.765625 C 222.097656 40.25 225.402344 48.226562 231.402344 54.226562 C 237.402344 60.226562 245.378906 63.53125 253.863281 63.53125 Z M 253.863281 9.03125 C 266.402344 9.03125 276.601562 19.230469 276.601562 31.765625 C 276.601562 44.304688 266.402344 54.503906 253.863281 54.503906 C 241.328125 54.503906 231.128906 44.304688 231.128906 31.765625 C 231.125 19.230469 241.328125 9.03125 253.863281 9.03125 Z M 253.863281 9.03125 " fill-opacity="1" fill-rule="nonzero"/><path fill="#2f6690" d="M 233.03125 70.050781 C 231.796875 70.050781 230.640625 70.539062 229.78125 71.433594 C 228.921875 72.324219 228.476562 73.5 228.523438 74.738281 C 228.613281 77.171875 230.632812 79.078125 233.117188 79.078125 L 273.046875 79.078125 C 282.84375 79.078125 290.8125 87.046875 290.8125 96.84375 L 290.8125 160.773438 C 290.8125 164.074219 288.125 166.761719 284.824219 166.761719 C 284.46875 166.761719 284.113281 166.730469 283.765625 166.667969 L 283.121094 166.550781 L 283.121094 119.394531 C 283.121094 116.910156 281.214844 114.890625 278.78125 114.796875 C 277.542969 114.75 276.371094 115.199219 275.480469 116.058594 C 274.585938 116.917969 274.09375 118.070312 274.09375 119.308594 L 274.09375 173.683594 L 273.171875 190.425781 C 273.054688 192.523438 274.441406 194.441406 276.46875 194.996094 L 276.535156 195.015625 C 276.925781 195.121094 277.324219 195.171875 277.71875 195.171875 C 278.644531 195.171875 279.558594 194.882812 280.328125 194.324219 C 281.429688 193.53125 282.105469 192.296875 282.179688 190.941406 L 283.023438 175.703125 L 283.8125 175.753906 C 284.148438 175.777344 284.488281 175.789062 284.824219 175.789062 C 293.105469 175.789062 299.839844 169.054688 299.839844 160.773438 L 299.839844 96.84375 C 299.839844 89.6875 297.054688 82.960938 291.992188 77.898438 C 286.933594 72.839844 280.203125 70.050781 273.046875 70.050781 Z M 233.03125 70.050781 " fill-opacity="1" fill-rule="nonzero"/><path fill="#2f6690" d="M 120.257812 63.53125 C 128.742188 63.53125 136.71875 60.226562 142.71875 54.226562 C 148.71875 48.226562 152.023438 40.25 152.023438 31.765625 C 152.023438 23.28125 148.71875 15.304688 142.71875 9.304688 C 136.71875 3.304688 128.742188 0 120.257812 0 C 111.773438 0 103.796875 3.304688 97.796875 9.304688 C 91.796875 15.304688 88.492188 23.28125 88.492188 31.765625 C 88.492188 40.25 91.796875 48.230469 97.796875 54.226562 C 103.796875 60.226562 111.773438 63.53125 120.257812 63.53125 Z M 120.257812 9.03125 C 132.792969 9.03125 142.996094 19.230469 142.996094 31.765625 C 142.996094 44.304688 132.792969 54.503906 120.257812 54.503906 C 107.722656 54.503906 97.519531 44.304688 97.519531 31.765625 C 97.519531 19.230469 107.722656 9.03125 120.257812 9.03125 Z M 120.257812 9.03125 " fill-opacity="1" fill-rule="nonzero"/><path fill="#2f6690" d="M 89.300781 175.789062 C 89.636719 175.789062 89.976562 175.777344 90.308594 175.753906 L 91.101562 175.699219 L 91.941406 190.9375 C 92.019531 192.292969 92.691406 193.527344 93.792969 194.324219 C 94.566406 194.878906 95.480469 195.171875 96.40625 195.171875 C 96.800781 195.171875 97.195312 195.117188 97.585938 195.011719 L 97.65625 194.992188 C 99.683594 194.441406 101.066406 192.519531 100.953125 190.425781 L 100.03125 173.683594 L 100.03125 119.308594 C 100.03125 118.070312 99.539062 116.917969 98.644531 116.058594 C 97.753906 115.195312 96.582031 114.75 95.34375 114.796875 C 92.910156 114.890625 91.003906 116.90625 91.003906 119.390625 L 91.003906 166.550781 L 90.355469 166.667969 C 90.011719 166.726562 89.65625 166.761719 89.300781 166.761719 C 86 166.761719 83.3125 164.074219 83.3125 160.773438 L 83.3125 96.839844 C 83.3125 87.046875 91.28125 79.078125 101.078125 79.078125 L 141.007812 79.078125 C 143.492188 79.078125 145.507812 77.171875 145.601562 74.734375 C 145.648438 73.496094 145.203125 72.324219 144.34375 71.433594 C 143.480469 70.539062 142.328125 70.046875 141.089844 70.046875 L 101.078125 70.046875 C 93.921875 70.046875 87.191406 72.835938 82.132812 77.894531 C 77.070312 82.957031 74.285156 89.683594 74.285156 96.839844 L 74.285156 160.769531 C 74.285156 169.054688 81.019531 175.789062 89.300781 175.789062 Z M 89.300781 175.789062 " fill-opacity="1" fill-rule="nonzero"/><path fill="#2f6690" d="M 210.035156 231.902344 L 210.101562 231.921875 C 210.492188 232.027344 210.890625 232.078125 211.28125 232.078125 C 212.210938 232.078125 213.125 231.789062 213.894531 231.230469 C 214.996094 230.4375 215.671875 229.203125 215.746094 227.847656 L 216.589844 203.238281 L 217.378906 203.289062 C 217.714844 203.3125 218.054688 203.324219 218.390625 203.324219 C 226.667969 203.324219 233.40625 196.589844 233.40625 188.308594 L 233.40625 124.378906 C 233.40625 117.222656 230.621094 110.492188 225.558594 105.433594 C 220.863281 100.742188 214.738281 98.003906 208.164062 97.632812 C 207.953125 97.601562 207.738281 97.585938 207.523438 97.585938 L 166.601562 97.585938 C 166.382812 97.585938 166.167969 97.601562 165.957031 97.632812 C 159.386719 98.007812 153.257812 100.742188 148.5625 105.433594 C 143.503906 110.496094 140.714844 117.222656 140.714844 124.378906 L 140.714844 188.3125 C 140.714844 196.589844 147.453125 203.328125 155.730469 203.328125 C 156.066406 203.328125 156.410156 203.316406 156.742188 203.292969 L 157.535156 203.238281 L 158.375 227.847656 C 158.449219 229.203125 159.125 230.4375 160.226562 231.230469 C 161 231.789062 161.910156 232.078125 162.839844 232.078125 C 163.234375 232.078125 163.628906 232.027344 164.019531 231.921875 L 164.089844 231.902344 C 166.113281 231.351562 167.5 229.429688 167.386719 227.335938 L 166.460938 201.222656 L 166.460938 146.84375 C 166.460938 145.609375 165.972656 144.453125 165.078125 143.59375 C 164.1875 142.734375 163.011719 142.289062 161.773438 142.335938 C 159.339844 142.425781 157.433594 144.445312 157.433594 146.929688 L 157.433594 194.089844 L 156.789062 194.203125 C 156.445312 194.265625 156.089844 194.296875 155.734375 194.296875 C 152.429688 194.296875 149.746094 191.613281 149.746094 188.308594 L 149.746094 124.378906 C 149.746094 114.582031 157.714844 106.613281 167.511719 106.613281 L 206.617188 106.613281 C 216.410156 106.613281 224.378906 114.585938 224.378906 124.378906 L 224.378906 188.308594 C 224.378906 191.613281 221.695312 194.296875 218.390625 194.296875 C 218.035156 194.296875 217.679688 194.265625 217.335938 194.203125 L 216.691406 194.089844 L 216.691406 146.929688 C 216.691406 144.445312 214.785156 142.425781 212.351562 142.335938 C 211.113281 142.289062 209.941406 142.734375 209.046875 143.59375 C 208.15625 144.453125 207.664062 145.609375 207.664062 146.84375 L 207.664062 201.222656 L 206.738281 227.335938 C 206.621094 229.429688 208.007812 231.351562 210.035156 231.902344 Z M 210.035156 231.902344 " fill-opacity="1" fill-rule="nonzero"/><g clip-path="url(#07eb806f1f)"><path fill="#2f6690" d="M 369.140625 249.664062 L 361.699219 147.953125 C 361.332031 142.511719 358.878906 137.519531 354.796875 133.898438 C 350.710938 130.277344 345.453125 128.4375 340 128.730469 C 335.050781 128.992188 330.355469 131.027344 326.78125 134.464844 C 323.210938 137.894531 320.996094 142.5 320.53125 147.429688 L 314.558594 205.792969 C 308.777344 204.242188 302.394531 205.097656 297.046875 208.644531 L 234.550781 249.980469 C 234.484375 250.023438 234.421875 250.070312 234.355469 250.117188 C 228.277344 254.621094 223.175781 260.523438 219.601562 267.195312 C 216.035156 273.855469 213.945312 281.363281 213.558594 288.910156 L 210.351562 340.605469 L 203.175781 340.410156 C 200.703125 340.34375 198.636719 342.289062 198.554688 344.761719 L 197.75 368.605469 C 197.664062 371.089844 199.609375 373.171875 202.097656 373.257812 C 204.582031 373.339844 206.664062 371.394531 206.75 368.910156 L 207.402344 349.535156 L 293.507812 351.839844 L 293.246094 369.492188 C 293.210938 371.976562 295.195312 374.023438 297.683594 374.058594 C 299.171875 374.082031 300.503906 373.378906 301.339844 372.277344 C 301.898438 371.539062 302.238281 370.621094 302.25 369.625 L 302.578125 347.523438 C 302.613281 345.058594 300.660156 343.023438 298.195312 342.957031 L 290.746094 342.757812 L 291.542969 336.027344 C 292.15625 330.820312 294.757812 326.164062 298.863281 322.910156 L 355.675781 277.90625 C 358.015625 276.054688 360.121094 273.898438 361.925781 271.519531 C 363.351562 269.636719 364.59375 267.613281 365.617188 265.492188 C 367.9375 260.683594 369.160156 255.320312 369.148438 249.984375 C 369.152344 249.875 369.148438 249.769531 369.140625 249.664062 Z M 350.085938 270.847656 L 293.269531 315.851562 C 290.3125 318.195312 287.875 321.054688 286.035156 324.351562 C 284.195312 327.648438 283.039062 331.222656 282.597656 334.972656 L 281.707031 342.511719 L 219.359375 340.84375 L 222.550781 289.441406 C 222.550781 289.425781 222.550781 289.40625 222.550781 289.390625 C 223.195312 276.671875 229.414062 265.027344 239.621094 257.421875 L 302.015625 216.152344 C 307.578125 212.464844 315.050781 213.769531 319.039062 219.121094 C 322.804688 224.175781 322.222656 231.289062 317.683594 235.664062 L 274.066406 277.730469 C 272.273438 279.457031 272.222656 282.308594 273.949219 284.097656 C 275.675781 285.886719 278.523438 285.941406 280.316406 284.214844 L 323.933594 242.148438 C 324.738281 241.375 325.480469 240.539062 326.148438 239.660156 C 328.617188 236.40625 330.121094 232.503906 330.457031 228.386719 C 330.886719 223.152344 329.398438 217.953125 326.261719 213.742188 C 325.324219 212.488281 324.277344 211.363281 323.144531 210.371094 L 329.492188 148.324219 C 329.496094 148.3125 329.496094 148.296875 329.496094 148.28125 C 330.027344 142.566406 334.746094 138.027344 340.476562 137.722656 C 346.800781 137.386719 352.292969 142.253906 352.714844 148.570312 C 352.714844 148.582031 352.71875 148.589844 352.71875 148.597656 L 360.144531 250.15625 C 360.113281 258.269531 356.453125 265.804688 350.085938 270.847656 Z M 350.085938 270.847656 " fill-opacity="1" fill-rule="nonzero"/></g><g clip-path="url(#383b209193)"><path fill="#2f6690" d="M 175.566406 344.761719 C 175.484375 342.285156 173.421875 340.34375 170.949219 340.410156 L 163.769531 340.605469 L 160.5625 288.910156 C 160.179688 281.363281 158.089844 273.855469 154.519531 267.195312 C 150.945312 260.527344 145.84375 254.621094 139.765625 250.117188 C 139.699219 250.070312 139.636719 250.023438 139.570312 249.980469 L 77.078125 208.644531 C 71.730469 205.097656 65.347656 204.242188 59.5625 205.792969 L 53.589844 147.429688 C 53.128906 142.5 50.910156 137.894531 47.339844 134.464844 C 43.765625 131.027344 39.070312 128.992188 34.121094 128.730469 C 28.667969 128.4375 23.414062 130.277344 19.328125 133.898438 C 15.242188 137.519531 12.789062 142.511719 12.421875 147.953125 L 4.984375 249.664062 C 4.976562 249.769531 4.972656 249.878906 4.972656 249.984375 C 4.960938 255.324219 6.183594 260.683594 8.503906 265.492188 C 9.527344 267.613281 10.769531 269.636719 12.195312 271.519531 C 14.003906 273.902344 16.109375 276.054688 18.445312 277.910156 L 75.257812 322.910156 C 79.367188 326.164062 81.96875 330.824219 82.582031 336.027344 L 83.375 342.757812 L 75.925781 342.957031 C 73.460938 343.023438 71.507812 345.058594 71.542969 347.523438 L 71.871094 369.625 C 71.882812 370.625 72.222656 371.542969 72.78125 372.277344 C 73.617188 373.378906 74.949219 374.082031 76.4375 374.0625 C 78.921875 374.023438 80.910156 371.980469 80.875 369.492188 L 80.613281 351.839844 L 166.714844 349.535156 L 167.371094 368.910156 C 167.453125 371.398438 169.539062 373.34375 172.023438 373.257812 C 174.507812 373.175781 176.457031 371.09375 176.371094 368.605469 Z M 92.414062 342.515625 L 91.523438 334.972656 C 91.082031 331.222656 89.925781 327.648438 88.085938 324.355469 C 86.246094 321.054688 83.808594 318.195312 80.851562 315.851562 L 24.035156 270.847656 C 17.667969 265.804688 14.007812 258.269531 13.976562 250.15625 L 21.402344 148.597656 C 21.40625 148.589844 21.40625 148.582031 21.40625 148.570312 C 21.828125 142.253906 27.320312 137.386719 33.644531 137.722656 C 39.375 138.027344 44.09375 142.566406 44.625 148.28125 C 44.625 148.296875 44.625 148.3125 44.628906 148.324219 L 50.976562 210.371094 C 49.84375 211.363281 48.796875 212.484375 47.859375 213.742188 C 44.726562 217.953125 43.234375 223.152344 43.664062 228.386719 C 44 232.503906 45.507812 236.40625 47.972656 239.660156 C 48.640625 240.539062 49.382812 241.375 50.1875 242.148438 L 93.804688 284.214844 C 95.597656 285.941406 98.445312 285.886719 100.171875 284.097656 C 101.898438 282.308594 101.847656 279.457031 100.058594 277.730469 L 56.441406 235.667969 C 51.902344 231.289062 51.320312 224.175781 55.085938 219.121094 C 59.070312 213.769531 66.546875 212.46875 72.105469 216.152344 L 134.5 257.425781 C 144.707031 265.027344 150.929688 276.671875 151.570312 289.390625 C 151.570312 289.40625 151.570312 289.425781 151.574219 289.441406 L 154.761719 340.84375 Z M 92.414062 342.515625 " fill-opacity="1" fill-rule="nonzero"/></g></svg>