<svg xmlns="http://www.w3.org/2000/svg" xmlns:xlink="http://www.w3.org/1999/xlink" width="500" zoomAndPan="magnify" viewBox="0 0 375 374.999991" height="500" preserveAspectRatio="xMidYMid meet" version="1.0"><defs><clipPath id="1039324496"><path d="M 0 9 L 375 9 L 375 366 L 0 366 Z M 0 9 " clip-rule="nonzero"/></clipPath><clipPath id="b4745c3c7b"><path d="M 187.730469 9.503906 L 231.53125 144.597656 C 231.667969 145.023438 232.066406 145.3125 232.511719 145.3125 L 374.25 145.3125 C 374.355469 145.3125 374.449219 145.378906 374.480469 145.480469 C 374.515625 145.582031 374.480469 145.691406 374.394531 145.753906 L 259.726562 229.246094 C 259.363281 229.511719 259.210938 229.976562 259.351562 230.402344 L 303.148438 365.496094 C 303.183594 365.597656 303.148438 365.707031 303.0625 365.769531 C 302.976562 365.832031 302.859375 365.832031 302.773438 365.769531 L 188.105469 282.277344 C 187.746094 282.011719 187.253906 282.011719 186.894531 282.277344 L 72.226562 365.769531 C 72.140625 365.832031 72.023438 365.832031 71.9375 365.769531 C 71.851562 365.707031 71.816406 365.597656 71.851562 365.496094 L 115.648438 230.402344 C 115.789062 229.976562 115.636719 229.511719 115.273438 229.246094 L 0.605469 145.753906 C 0.519531 145.691406 0.484375 145.582031 0.519531 145.480469 C 0.550781 145.378906 0.644531 145.3125 0.75 145.3125 L 142.488281 145.3125 C 142.933594 145.3125 143.332031 145.023438 143.46875 144.597656 L 187.269531 9.503906 C 187.300781 9.402344 187.394531 9.335938 187.5 9.335938 C 187.605469 9.335938 187.699219 9.402344 187.730469 9.503906 Z M 187.730469 9.503906 " clip-rule="nonzero"/></clipPath><clipPath id="a22a8eec90"><path d="M 0.480469 0.121094 L 374.640625 0.121094 L 374.640625 357 L 0.480469 357 Z M 0.480469 0.121094 " clip-rule="nonzero"/></clipPath><clipPath id="7d6b4b1726"><path d="M 187.730469 0.503906 L 231.53125 135.597656 C 231.667969 136.023438 232.066406 136.3125 232.511719 136.3125 L 374.25 136.3125 C 374.355469 136.3125 374.449219 136.378906 374.480469 136.480469 C 374.515625 136.582031 374.480469 136.691406 374.394531 136.753906 L 259.726562 220.246094 C 259.363281 220.511719 259.210938 220.976562 259.351562 221.402344 L 303.148438 356.496094 C 303.183594 356.597656 303.148438 356.707031 303.0625 356.769531 C 302.976562 356.832031 302.859375 356.832031 302.773438 356.769531 L 188.105469 273.277344 C 187.746094 273.011719 187.253906 273.011719 186.894531 273.277344 L 72.226562 356.769531 C 72.140625 356.832031 72.023438 356.832031 71.9375 356.769531 C 71.851562 356.707031 71.816406 356.597656 71.851562 356.496094 L 115.648438 221.402344 C 115.789062 220.976562 115.636719 220.511719 115.273438 220.246094 L 0.605469 136.753906 C 0.519531 136.691406 0.484375 136.582031 0.519531 136.480469 C 0.550781 136.378906 0.644531 136.3125 0.75 136.3125 L 142.488281 136.3125 C 142.933594 136.3125 143.332031 136.023438 143.46875 135.597656 L 187.269531 0.503906 C 187.300781 0.402344 187.394531 0.335938 187.5 0.335938 C 187.605469 0.335938 187.699219 0.402344 187.730469 0.503906 Z M 187.730469 0.503906 " clip-rule="nonzero"/></clipPath><clipPath id="fcf7cbe86d"><rect x="0" width="375" y="0" height="357"/></clipPath></defs><g clip-path="url(#1039324496)"><g clip-path="url(#b4745c3c7b)"><g transform="matrix(1, 0, 0, 1, 0.000000000000000056, 9)"><g clip-path="url(#fcf7cbe86d)"><g clip-path="url(#a22a8eec90)"><g clip-path="url(#7d6b4b1726)"><rect x="-82.5" width="540" fill="#ffde59" height="539.999987" y="-91.499998" fill-opacity="1"/></g></g></g></g></g></g></svg>