<svg xmlns="http://www.w3.org/2000/svg" xmlns:xlink="http://www.w3.org/1999/xlink" width="500" zoomAndPan="magnify" viewBox="0 0 375.12 383.03998" height="500" preserveAspectRatio="xMidYMid meet" version="1.0"><defs><clipPath id="3b66a95a87"><path d="M 37.4375 0 L 347.160156 0 L 347.160156 374 L 37.4375 374 Z M 37.4375 0 " clip-rule="nonzero"/></clipPath></defs><g clip-path="url(#3b66a95a87)"><path fill="#2e0db0" d="M 301.933594 223.851562 C 283.691406 223.851562 267.976562 234.710938 260.8125 250.292969 L 245.734375 250.292969 C 224.394531 250.292969 207.042969 267.625 207.042969 288.921875 L 207.042969 309.878906 C 207.042969 316.777344 204.089844 323.433594 198.945312 328.117188 C 193.707031 332.882812 186.921875 335.136719 179.867188 334.480469 C 167.371094 333.28125 157.582031 321.878906 157.582031 308.523438 L 157.582031 248.550781 C 157.582031 245.519531 159.742188 242.832031 162.804688 242.027344 C 202.75 231.738281 232.023438 197.03125 235.65625 155.664062 L 238.105469 127.632812 C 238.75 120.539062 233.496094 114.246094 226.375 113.601562 L 226.105469 113.574219 L 229.445312 75.371094 C 231.191406 55.699219 221.855469 37.074219 205.113281 26.761719 L 203.414062 25.703125 L 203.625 25.382812 C 207.515625 19.429688 205.832031 11.421875 199.878906 7.527344 L 193.429688 3.328125 C 188.960938 0.40625 183.632812 -0.574219 178.410156 0.503906 C 173.1875 1.605469 168.710938 4.667969 165.824219 9.09375 C 165.816406 9.105469 165.457031 9.648438 165.449219 9.660156 C 159.4375 18.882812 162.042969 31.277344 171.253906 37.285156 L 177.703125 41.492188 C 179.867188 42.902344 182.3125 43.582031 184.722656 43.582031 C 188.933594 43.582031 193.074219 41.523438 195.546875 37.738281 L 196.351562 36.5 L 198.316406 37.726562 C 210.898438 45.46875 217.902344 59.449219 216.585938 74.230469 L 213.246094 112.453125 L 212.96875 112.425781 C 205.875 111.828125 199.652344 117.042969 199 124.15625 L 196.550781 152.203125 C 193.824219 182.78125 168.632812 205.84375 137.972656 205.84375 C 107.308594 205.84375 82.066406 182.789062 79.390625 152.203125 L 76.875 124.128906 C 76.230469 117.03125 69.917969 111.703125 62.933594 112.425781 L 62.644531 112.453125 L 59.308594 74.21875 C 57.996094 59.449219 64.996094 45.464844 77.605469 37.710938 L 79.546875 36.507812 L 80.351562 37.738281 C 82.820312 41.523438 86.960938 43.582031 91.171875 43.582031 C 93.589844 43.582031 96.027344 42.902344 98.195312 41.492188 L 104.644531 37.285156 C 113.859375 31.269531 116.464844 18.882812 110.101562 9.132812 C 107.183594 4.667969 102.710938 1.605469 97.488281 0.503906 C 92.261719 -0.574219 86.9375 0.414062 82.472656 3.328125 L 76.023438 7.53125 C 70.074219 11.421875 68.390625 19.421875 72.273438 25.386719 L 72.484375 25.710938 L 70.808594 26.753906 C 54.035156 37.074219 44.703125 55.703125 46.453125 75.367188 L 49.785156 113.582031 L 49.480469 113.605469 C 42.382812 114.25 37.125 120.546875 37.773438 127.621094 L 40.222656 155.671875 C 43.847656 197.039062 73.125 231.746094 113.035156 242.019531 C 116.128906 242.839844 118.289062 245.527344 118.289062 248.558594 L 118.289062 309.886719 C 118.289062 327.496094 125.691406 344.527344 138.601562 356.597656 C 150.605469 367.820312 165.957031 373.867188 182.242188 373.867188 C 183.71875 373.867188 185.207031 373.816406 186.699219 373.71875 C 220.152344 371.457031 246.367188 342.484375 246.367188 307.757812 L 246.367188 289.578125 L 261.566406 289.578125 C 269.054688 304.292969 284.3125 314.425781 301.921875 314.425781 C 326.890625 314.425781 347.199219 294.117188 347.199219 269.148438 C 347.199219 244.179688 326.890625 223.871094 301.921875 223.871094 Z M 178.289062 26.496094 C 175.023438 24.363281 174.101562 19.972656 176.207031 16.746094 C 176.210938 16.734375 176.574219 16.191406 176.578125 16.179688 C 177.609375 14.601562 179.191406 13.515625 181.035156 13.128906 C 182.878906 12.71875 184.769531 13.089844 186.355469 14.128906 L 192.796875 18.328125 L 184.730469 30.6875 L 178.289062 26.492188 Z M 89.527344 14.128906 C 90.691406 13.375 92.019531 12.976562 93.378906 12.976562 C 93.867188 12.976562 94.359375 13.027344 94.84375 13.128906 C 96.691406 13.515625 98.273438 14.605469 99.652344 16.703125 C 101.789062 19.972656 100.867188 24.363281 97.601562 26.496094 L 91.160156 30.695312 L 83.085938 18.339844 L 89.535156 14.128906 Z M 245.664062 276.667969 C 238.945312 276.667969 233.476562 282.136719 233.476562 288.855469 L 233.476562 307.75 C 233.476562 335.71875 212.550781 359.035156 185.839844 360.835938 C 171.472656 361.804688 157.878906 356.941406 147.425781 347.171875 C 137.113281 337.53125 131.199219 323.9375 131.199219 309.878906 L 131.199219 248.550781 C 131.199219 239.671875 125.085938 231.855469 116.296875 229.535156 C 81.09375 220.472656 56.28125 191.035156 53.082031 154.550781 L 50.628906 126.457031 L 64.03125 125.3125 L 66.546875 153.355469 C 69.808594 190.640625 100.515625 218.765625 137.972656 218.765625 C 175.425781 218.765625 206.070312 190.65625 209.398438 153.355469 L 211.828125 125.292969 L 225.246094 126.503906 L 222.796875 154.554688 C 219.597656 191.042969 194.785156 220.480469 159.535156 229.554688 C 150.785156 231.863281 144.671875 239.679688 144.671875 248.558594 L 144.671875 308.53125 C 144.671875 328.464844 159.582031 345.5 178.636719 347.332031 C 189.210938 348.304688 199.78125 344.792969 207.617188 337.660156 C 215.4375 330.539062 219.925781 320.410156 219.925781 309.886719 L 219.925781 288.925781 C 219.925781 274.738281 231.496094 263.195312 245.722656 263.195312 L 257.078125 263.195312 C 256.820312 265.144531 256.640625 267.125 256.640625 269.140625 C 256.640625 271.714844 256.902344 274.222656 257.324219 276.679688 L 245.65625 276.679688 Z M 301.933594 301.515625 C 284.074219 301.515625 269.550781 286.984375 269.550781 269.136719 C 269.550781 251.285156 284.078125 236.757812 301.933594 236.757812 C 319.792969 236.757812 334.3125 251.285156 334.3125 269.136719 C 334.3125 286.984375 319.785156 301.515625 301.933594 301.515625 Z M 301.933594 246.738281 C 289.585938 246.738281 279.539062 256.785156 279.539062 269.136719 C 279.539062 281.484375 289.585938 291.53125 301.933594 291.53125 C 314.285156 291.53125 324.332031 281.484375 324.332031 269.136719 C 324.332031 256.785156 314.285156 246.738281 301.933594 246.738281 Z M 301.933594 278.628906 C 296.699219 278.628906 292.4375 274.371094 292.4375 269.128906 C 292.4375 263.886719 296.691406 259.628906 301.933594 259.628906 C 307.179688 259.628906 311.433594 263.886719 311.433594 269.128906 C 311.433594 274.371094 307.179688 278.628906 301.933594 278.628906 Z M 301.933594 278.628906 " fill-opacity="1" fill-rule="nonzero"/></g></svg>