<svg xmlns="http://www.w3.org/2000/svg" xmlns:xlink="http://www.w3.org/1999/xlink" width="500" zoomAndPan="magnify" viewBox="0 0 375.12 383.03998" height="500" preserveAspectRatio="xMidYMid meet" version="1.0"><path fill="#2f6690" d="M 260.996094 373.835938 C 231.285156 373.835938 226.675781 340.539062 222.320312 308.265625 C 216.859375 268.480469 211.394531 242.355469 185.867188 242.355469 C 160.339844 242.355469 154.875 268.480469 149.410156 308.265625 C 144.96875 340.539062 140.445312 373.835938 110.734375 373.835938 C 79.65625 373.835938 56.859375 319.453125 46.101562 287.007812 C 17.417969 200.949219 2.132812 60.84375 58.140625 18.839844 C 83.070312 0.226562 114.320312 12.519531 141.980469 23.449219 C 158.03125 29.765625 173.230469 35.742188 185.867188 35.742188 C 198.5 35.742188 213.785156 30.109375 229.835938 24.132812 C 256.558594 14.140625 286.867188 2.789062 312.738281 18.324219 C 371.988281 53.929688 366.011719 163.980469 342.875 247.476562 C 326.738281 305.789062 295.574219 373.835938 260.996094 373.835938 Z M 185.867188 223.574219 C 229.664062 223.574219 235.898438 269.164062 240.933594 305.707031 C 244.945312 335.503906 248.617188 355.054688 260.996094 355.054688 C 276.707031 355.054688 305.566406 312.023438 324.773438 242.527344 C 347.828125 159.285156 350.046875 62.636719 303.089844 34.460938 C 284.902344 23.535156 261.339844 32.328125 236.410156 41.71875 C 219.503906 48.035156 202.085938 54.527344 185.867188 54.527344 C 169.644531 54.527344 152.054688 47.609375 135.066406 40.867188 C 109.792969 30.960938 85.890625 21.484375 69.410156 33.949219 C 27.320312 65.453125 32.613281 187.203125 63.863281 281.03125 C 80.851562 331.917969 100.0625 355.054688 110.734375 355.054688 C 123.113281 355.054688 126.699219 335.503906 130.796875 305.707031 C 135.75 269.164062 141.980469 223.574219 185.867188 223.574219 Z M 185.867188 223.574219 " fill-opacity="1" fill-rule="nonzero"/></svg>